<?xml version="1.0" encoding="utf-8"?>
<!-- Generator: Adobe Illustrator 23.0.6, SVG Export Plug-In . SVG Version: 6.00 Build 0)  -->
<svg version="1.1" id="Layer_1" xmlns="http://www.w3.org/2000/svg" xmlns:xlink="http://www.w3.org/1999/xlink" x="0px" y="0px"
	 viewBox="0 0 1366 348" style="enable-background:new 0 0 1366 348;" xml:space="preserve">
<style type="text/css">
	.st0{fill:#E98C3B;}
	.st1{fill:#333333;}
	.st2{fill:#D6D8D8;}
</style>
<path class="st0" d="M185.5,22c-26.3,0-51,6.6-72.7,18.1v165.4l44.7-54h23l-39,46l44,73h-24l-34-59l-15,16v43h-20V53.1
	C55.1,81.3,31,126.1,31,176.5C31,261.8,100.2,331,185.5,331S340,261.8,340,176.5S270.8,22,185.5,22z M232,256c24,0,24-25,24-25h21
	c0,0,0,42-45,42c-51,0-48-60-48-60v-3c0,0-3-60,48-60c45,0,45,42,45,42h-21c0,0,0-25-24-25s-28,27-28,43v3C204,229,208,256,232,256z
	"/>
<g>
	<path class="st0" d="M429.5,86.5v41l36-41h25l-34,37l36,56h-24l-25-43l-14,15v28h-19v-93H429.5z"/>
	<path class="st0" d="M517.3,112.9v9.2h0.4c2.3-3.8,5.3-6.6,9-8.4c3.7-1.7,7.4-2.6,11.3-2.6c4.9,0,8.9,0.7,12,2s5.6,3.2,7.4,5.5
		s3.1,5.2,3.8,8.6c0.7,3.4,1.1,7.1,1.1,11.2V179h-18.2v-37.4c0-5.5-0.9-9.5-2.6-12.2s-4.7-4-9.1-4c-5,0-8.5,1.5-10.8,4.4
		c-2.2,2.9-3.3,7.8-3.3,14.5V179l-16.6,0.5v-67L517.3,112.9z"/>
	<path class="st0" d="M576.5,131.6c1.6-4.3,3.9-8,6.9-11s6.6-5.4,10.8-7c4.2-1.7,8.9-2.5,14.1-2.5s9.9,0.8,14.1,2.5s7.8,4,10.8,7
		s5.3,6.7,6.9,11s2.4,9.1,2.4,14.4s-0.8,10.1-2.4,14.3c-1.6,4.3-3.9,7.9-6.9,10.9s-6.6,5.4-10.8,7s-8.9,2.4-14.1,2.4
		s-9.9-0.8-14.1-2.4s-7.8-3.9-10.8-7c-3-3-5.3-6.7-6.9-10.9c-1.6-4.3-2.4-9-2.4-14.3S574.9,135.9,576.5,131.6z M593.1,153.8
		c0.5,2.5,1.4,4.8,2.6,6.8s2.9,3.6,4.9,4.8s4.6,1.8,7.7,1.8s5.7-0.6,7.7-1.8c2.1-1.2,3.8-2.8,5-4.8s2.1-4.3,2.6-6.8s0.8-5.1,0.8-7.7
		s-0.3-5.2-0.8-7.8s-1.4-4.8-2.6-6.8s-2.9-3.6-5-4.8s-4.7-1.9-7.7-1.9c-3.1,0-5.6,0.6-7.7,1.9c-2,1.2-3.7,2.8-4.9,4.8
		s-2.1,4.2-2.6,6.8s-0.8,5.2-0.8,7.8S592.5,151.2,593.1,153.8z"/>
	<path class="st0" d="M708.5,179.5l-11.7-45h-0.3l-11.1,45h-18l-19-66.6l16-0.4l12,45l12-45h17l11.6,44h0.3l11.2-44h18l-21,67H708.5
		z"/>
	<path class="st0" d="M774.8,87.6V179h-18.2V87.6H774.8z"/>
	<path class="st0" d="M810.9,163.2c2.7,2.6,6.7,4,11.8,4c3.7,0,6.8-0.9,9.5-2.8c2.6-1.8,4.3-3.8,4.9-5.8l14.5,2.9
		c-2.6,7.9-5,10.7-10.3,14.1s-11.7,5.1-19.2,5.1c-5.2,0-9.9-0.8-14.1-2.5s-7.7-4-10.6-7.1s-5.1-6.7-6.7-11s-2.4-9-2.4-14.1
		c0-4.9,0.8-9.6,2.4-13.8c1.6-4.3,3.9-8,6.9-11.1s6.5-5.6,10.7-7.4c4.1-1.8,8.7-2.7,13.8-2.7c5.6,0,10.5,1.1,14.7,3.3
		s7.6,5.1,10.3,8.8s4.6,7.9,5.8,12.5c1.2,4.7,1.6,9.6,1.3,14.7h-47.7C806.6,156.3,808.1,160.5,810.9,163.2L810.9,163.2z
		 M831.4,128.3c-2.2-2.4-5.5-3.6-9.9-3.6c-2.9,0-5.3,0.5-7.2,1.5s-3.5,2.2-4.6,3.6c-1.2,1.5-2,3-2.4,4.6c-0.5,1.6-0.7,3.1-0.8,4.4
		H836C835.1,134.2,833.6,130.7,831.4,128.3z"/>
	<path class="st0" d="M913.1,170.6c-2.1,3.6-4.9,6.2-8.4,7.7s-7.4,2.4-11.7,2.4c-5,0-9.3-1-13.1-2.9s-6.8-4.5-9.3-7.8
		c-2.4-3.3-4.3-7.1-5.5-11.3c-1.2-4.3-1.9-8.7-1.9-13.3c0-4.4,0.6-8.7,1.9-12.9c1.2-4.1,3.1-7.8,5.5-10.9c2.4-3.2,5.5-5.7,9.2-7.6
		s7.9-2.9,12.8-2.9c3.9,0,7.7,0.8,11.2,2.5s6.3,4.1,8.4,7.4h0.3V87.6h18.2V179h-17.3v-8.4H913.1z M912.4,137.9
		c-0.5-2.5-1.4-4.7-2.6-6.7c-1.2-1.9-2.8-3.5-4.8-4.7s-4.4-1.8-7.4-1.8s-5.5,0.6-7.6,1.8c-2,1.2-3.7,2.8-4.9,4.7
		c-1.2,2-2.1,4.2-2.7,6.7s-0.8,5.1-0.8,7.9c0,2.6,0.3,5.1,0.9,7.7s1.6,4.8,2.9,6.8s3,3.6,5,4.9c2,1.2,4.4,1.9,7.2,1.9
		c3,0,5.5-0.6,7.5-1.8s3.6-2.8,4.8-4.8s2-4.3,2.6-6.8c0.5-2.6,0.8-5.2,0.8-7.9C913.1,143,912.9,140.4,912.4,137.9L912.4,137.9z"/>
	<path class="st0" d="M1007.2,185.9c-0.7,3.4-2.3,6.6-4.7,9.5s-5.8,5.4-10.4,7.5c-4.5,2-10.6,3.1-18.2,3.1c-3.2,0-6.5-0.4-9.9-1.2
		s-6.4-2.1-9.2-3.8s-5.1-3.9-6.9-6.6s-2.9-5.9-3.1-9.7l18.7,2.8c1,2,3,4,4.3,4.4c2.7,0.7,5.3,2,8.6,2c5.1,0,8.9-1.5,11.2-4.6
		s3.5-9,3.4-13.6V167h-0.3c-2,3.5-4.8,6.1-8.4,7.7c-3.6,1.7-7.4,2.5-11.5,2.5c-5,0-9.2-0.9-12.8-2.6s-6.5-4.1-8.8-7.2
		c-2.3-3-4-6.6-5.1-10.6c-1.1-4.1-1.6-8.3-1.6-12.9c0-4.3,0.6-8.4,1.9-12.4c1.2-4,3-7.5,5.4-10.5s5.4-5.4,8.9-7.2s7.6-2.7,12.2-2.7
		c4.4,0,8.2,0.8,11.5,2.4s6,4.4,8.3,8.2h0.3v-8.8h17.3v62C1008.3,177.5,1007.9,182.5,1007.2,185.9L1007.2,185.9z M982.3,161.9
		c2-1,3.6-2.4,4.9-4.1s2.2-3.6,2.9-5.8c0.6-2.2,1-4.5,1-6.8c0-2.7-0.3-5.3-0.8-7.7s-1.4-4.6-2.6-6.5s-2.8-3.4-4.7-4.5
		c-2-1.1-4.4-1.7-7.4-1.7c-2.6,0-4.8,0.5-6.6,1.5s-3.4,2.4-4.6,4.2s-2.1,3.8-2.7,6c-0.6,2.3-0.8,4.6-0.8,7.1c0,2.4,0.2,4.8,0.7,7.1
		s1.3,4.5,2.4,6.3c1.2,1.9,2.7,3.4,4.5,4.6c1.9,1.2,4.2,1.8,7,1.8C978.1,163.4,980.3,162.9,982.3,161.9L982.3,161.9z"/>
	<path class="st0" d="M1044.6,163.2c2.7,2.6,6.7,4,11.8,4c3.7,0,6.8-0.9,9.5-2.8c2.6-1.8,4.3-3.8,4.9-5.8l14.8,2.9
		c-2.6,7.9-5.3,10.7-10.6,14.1s-11.7,5.1-19.2,5.1c-5.2,0-9.9-0.8-14.1-2.5s-7.7-4-10.6-7.1s-5.1-6.7-6.7-11s-2.4-9-2.4-14.1
		c0-4.9,0.8-9.6,2.4-13.8c1.6-4.3,3.9-8,6.9-11.1s6.5-5.6,10.7-7.4c4.1-1.8,8.7-2.7,13.8-2.7c5.6,0,10.5,1.1,14.7,3.3
		s7.6,5.1,10.3,8.8s4.6,7.9,5.8,12.5c1.2,4.7,1.6,9.6,1.3,14.7h-47.7C1040.4,156.3,1041.9,160.5,1044.6,163.2L1044.6,163.2z
		 M1065.1,128.3c-2.2-2.4-5.5-3.6-9.9-3.6c-2.9,0-5.3,0.5-7.2,1.5s-3.5,2.2-4.6,3.6c-1.2,1.5-2,3-2.4,4.6c-0.5,1.6-0.7,3.1-0.8,4.4
		h29.6C1068.8,134.2,1067.3,130.7,1065.1,128.3z"/>
	<path class="st0" d="M1160.4,112c-1.2-1.9-2.7-3.6-4.5-5.1s-3.8-2.6-6.1-3.4s-4.6-1.2-7.1-1.2c-4.5,0-8.4,0.9-11.5,2.6
		c-3.2,1.8-5.7,4.1-7.7,7s-3.4,6.3-4.3,10c-0.9,3.8-1.3,7.6-1.3,11.6c0,3.8,0.4,7.6,1.3,11.2s2.3,6.9,4.3,9.8s4.5,5.2,7.7,7
		s7,2.6,11.5,2.6c6.1,0,10.9-1.9,14.4-5.6c3.5-3.8,5.6-8.7,6.3-14.8l19,3.7c-0.5,5.7-1.4,7.2-3.5,11.8s-4.9,8.5-8.4,11.8
		c-3.5,3.2-7.6,5.7-12.3,7.4s-9.9,2.6-15.5,2.6c-7,0-13.3-1.2-18.9-3.6s-10.3-5.8-14.1-10c-3.8-4.3-6.8-9.3-8.8-15
		c-2-5.8-3.1-12-3.1-18.6c0-6.8,1-13.2,3.1-19c2-5.8,5-10.9,8.8-15.3s8.6-7.8,14.1-10.2c5.6-2.5,11.9-3.7,18.9-3.7
		c5,0,9.8,0.7,14.3,2.2s8.5,3.6,12,6.3c3.5,2.8,6.5,6.2,8.8,10.3s3.7,7.2,3.7,9.2l-18.8,4.9C1162.4,116.1,1161.6,113.9,1160.4,112z"
		/>
	<path class="st0" d="M1196.5,102.6v-15h18.2v15H1196.5z M1214.7,112.9V179h-18.2v-66.2L1214.7,112.9L1214.7,112.9z"/>
	<path class="st0" d="M1263.5,112.9V125h-11.1v32.8c0,3.1,0.5,5.1,1.5,6.1s3.1,1.5,6.1,1.5c1,0,2,0,2.9-0.1s1.8-0.2,2.7-0.4V179
		c-1.5,0.3-3.2,0.4-5.1,0.5s-3.7,0.1-5.5,0.1c-2.8,0-5.5-0.2-8-0.6s-4.7-1.1-6.7-2.2c-1.9-1.1-3.4-2.7-4.5-4.7s-1.7-4.7-1.7-8.1v-39
		h-11v-12.2h11V99.5l18.2-14v27.4L1263.5,112.9z"/>
	<path class="st0" d="M1303.1,202.7c-3.5,2.3-8.4,3.5-14.6,3.5c-1.9,0-3.7-0.1-5.6-0.2c-1.8-0.1-5.6-0.3-7.4-0.5l3-14
		c1.7,0.2,13,4,16-3s1.3-12.3,0.8-13.6l-23.2-62.1h19.3l15,45.3h0.3l14.5-45.3h18.8l-28.6,78.4
		C1309.3,196.6,1306.6,200.4,1303.1,202.7L1303.1,202.7z"/>
</g>
<g>
	<path class="st1" d="M417.9,215.7v50.1h29.9v6.3h-37.4v-56.4L417.9,215.7z"/>
	<path class="st1" d="M483.7,269.5c-3.1,2.3-6.9,3.5-11.5,3.5c-3.3,0-6.1-0.5-8.5-1.6s-4.4-2.5-6-4.4s-2.9-4.2-3.7-6.8
		s-1.3-5.5-1.4-8.6c0-3.1,0.5-6,1.4-8.5c0.9-2.6,2.3-4.8,4-6.7s3.7-3.4,6.1-4.4c2.3-1.1,4.9-1.6,7.7-1.6c3.6,0,6.6,0.8,9,2.3
		s4.3,3.4,5.8,5.7c1.4,2.3,2.4,4.8,3,7.6c0.6,2.7,0.8,5.3,0.7,7.8h-30.6c-0.1,1.8,0.2,3.5,0.6,5.1c0.5,1.6,1.2,3,2.3,4.3
		c1.1,1.2,2.4,2.2,4,3c1.6,0.7,3.6,1.1,5.8,1.1c2.8,0,5.2-0.7,7-2s3-3.3,3.6-6h6.6C488.7,263.8,486.8,267.2,483.7,269.5L483.7,269.5
		z M482.1,243.3c-0.6-1.4-1.4-2.6-2.4-3.7c-1-1-2.2-1.8-3.6-2.4s-2.9-0.9-4.6-0.9s-3.3,0.3-4.7,0.9s-2.6,1.4-3.6,2.5
		s-1.8,2.3-2.4,3.7s-0.9,2.9-1,4.5h23.5C483.1,246.2,482.7,244.7,482.1,243.3L482.1,243.3z"/>
	<path class="st1" d="M535,272c-1.2,0.7-2.8,1-4.8,1c-1.7,0-3.1-0.5-4.1-1.5s-1.5-2.6-1.5-4.8c-1.8,2.2-4,3.8-6.4,4.8
		s-5.1,1.5-7.9,1.5c-1.8,0-3.6-0.2-5.3-0.6s-3.1-1.1-4.3-2s-2.2-2.1-2.9-3.5s-1.1-3.2-1.1-5.3c0-2.3,0.4-4.2,1.2-5.7
		s1.8-2.7,3.1-3.6s2.8-1.6,4.4-2.1c1.7-0.5,3.4-0.9,5.1-1.2c1.8-0.4,3.6-0.6,5.3-0.8s3.1-0.4,4.4-0.8c1.3-0.3,2.3-0.8,3-1.5
		s1.1-1.6,1.1-2.9c0-1.5-0.3-2.7-0.8-3.6c-0.6-0.9-1.3-1.6-2.1-2.1c-0.9-0.5-1.8-0.8-2.9-0.9c-1.1-0.2-2.1-0.2-3.2-0.2
		c-2.8,0-5.2,0.5-7.1,1.6s-2.9,3.1-3.1,6.1h-6.7c0.1-2.5,0.6-4.7,1.6-6.4c0.9-1.7,2.2-3.1,3.8-4.2s3.4-1.9,5.4-2.3
		c2-0.5,4.2-0.7,6.5-0.7c1.8,0,3.7,0.1,5.5,0.4s3.5,0.8,4.9,1.6c1.5,0.8,2.7,2,3.6,3.4c0.9,1.5,1.3,3.4,1.3,5.8v21
		c0,1.6,0.1,2.7,0.3,3.5c0.2,0.7,0.8,1.1,1.9,1.1c0.6,0,1.3-0.1,2.1-0.3v5.2L535,272z M524.1,251.1c-0.8,0.6-1.9,1.1-3.3,1.4
		s-2.8,0.5-4.3,0.7s-3,0.4-4.5,0.6s-2.9,0.6-4.1,1.1s-2.2,1.3-3,2.2c-0.8,1-1.1,2.3-1.1,4c0,1.1,0.2,2,0.7,2.8
		c0.4,0.8,1,1.4,1.7,1.8c0.7,0.5,1.5,0.8,2.5,1c0.9,0.2,1.9,0.3,3,0.3c2.2,0,4.1-0.3,5.7-0.9s2.9-1.4,3.9-2.3s1.7-1.9,2.2-3
		s0.7-2.1,0.7-3v-6.7L524.1,251.1z"/>
	<path class="st1" d="M548.9,231.3v8.6h0.2c1.6-3.3,3.6-5.8,6-7.3c2.4-1.6,5.4-2.3,9-2.2v7.1c-2.7,0-5,0.4-6.9,1.1s-3.4,1.8-4.6,3.2
		s-2,3.1-2.5,5.2c-0.5,2-0.8,4.4-0.8,7v18.2h-6.7v-40.8h6.3V231.3z"/>
	<path class="st1" d="M578.4,231.3v6.5h0.2c2.8-4.9,7.2-7.4,13.3-7.4c2.7,0,4.9,0.4,6.7,1.1s3.2,1.8,4.3,3.1s1.9,2.9,2.3,4.7
		s0.7,3.8,0.7,6v26.9h-6.7v-27.6c0-2.5-0.7-4.5-2.2-6s-3.5-2.2-6.1-2.2c-2.1,0-3.8,0.3-5.3,0.9s-2.8,1.5-3.8,2.7s-1.8,2.5-2.3,4.1
		s-0.8,3.3-0.8,5.1v23.1H572v-40.8h6.4L578.4,231.3z"/>
	<path class="st1" d="M618,224v-8.2h6.7v8.2H618z M624.7,231.3v40.8H618v-40.8H624.7z"/>
	<path class="st1" d="M643.1,231.3v6.5h0.2c2.8-4.9,7.2-7.4,13.3-7.4c2.7,0,4.9,0.4,6.7,1.1s3.2,1.8,4.3,3.1s1.9,2.9,2.3,4.7
		s0.7,3.8,0.7,6v26.9h-6.7v-27.6c0-2.5-0.7-4.5-2.2-6s-3.5-2.2-6.1-2.2c-2.1,0-3.8,0.3-5.3,0.9s-2.8,1.5-3.8,2.7s-1.8,2.5-2.3,4.1
		s-0.8,3.3-0.8,5.1v23.1h-6.7v-40.8h6.4L643.1,231.3z"/>
	<path class="st1" d="M712.9,283.7c-3.1,3.3-7.8,5-14.4,5c-1.9,0-3.8-0.2-5.8-0.6s-3.8-1.1-5.4-2.1c-1.6-0.9-2.9-2.2-4-3.7
		s-1.6-3.4-1.7-5.6h6.7c0.1,1.2,0.4,2.2,1.1,3.1c0.7,0.8,1.6,1.5,2.6,2.1c1,0.5,2.1,0.9,3.4,1.1c1.2,0.2,2.4,0.4,3.5,0.4
		c2.2,0,4.1-0.4,5.6-1.1c1.5-0.8,2.8-1.8,3.8-3.2c1-1.3,1.7-3,2.2-4.9c0.4-1.9,0.7-4,0.7-6.2v-2.7H711c-1.2,2.5-2.9,4.4-5.3,5.6
		c-2.3,1.2-4.8,1.8-7.5,1.8c-3.1,0-5.7-0.6-8-1.7s-4.2-2.6-5.7-4.5s-2.7-4.1-3.4-6.6c-0.8-2.5-1.1-5.1-1.1-7.9
		c0-2.4,0.3-4.9,0.9-7.5s1.7-4.9,3.2-7s3.4-3.8,5.8-5.1s5.4-2,8.9-2c2.6,0,5,0.6,7.1,1.7c2.2,1.1,3.8,2.8,5.1,5.1h0.1v-5.8h6.3v37.4
		C717.5,275.4,715.9,280.4,712.9,283.7L712.9,283.7z M704.3,265.3c1.6-0.9,2.8-2.1,3.8-3.6c0.9-1.5,1.6-3.2,2.1-5.1
		c0.4-1.9,0.7-3.8,0.7-5.7c0-1.8-0.2-3.6-0.6-5.3s-1.1-3.3-2-4.7s-2.1-2.5-3.6-3.4c-1.5-0.8-3.3-1.3-5.4-1.3c-2.2,0-4,0.4-5.5,1.2
		s-2.8,1.9-3.8,3.3s-1.7,2.9-2.1,4.7s-0.7,3.7-0.7,5.6c0,1.8,0.2,3.7,0.6,5.5s1,3.5,1.9,5s2.1,2.7,3.6,3.6s3.3,1.4,5.5,1.4
		S702.8,266.2,704.3,265.3L704.3,265.3z"/>
	<path class="st1" d="M782,223.4c-2.5-1.8-5.7-2.7-9.6-2.7c-1.6,0-3.1,0.2-4.7,0.5s-2.9,0.8-4.1,1.6c-1.2,0.7-2.1,1.7-2.8,3
		c-0.7,1.2-1.1,2.8-1.1,4.6c0,1.7,0.5,3.1,1.5,4.2s2.4,2,4.1,2.6c1.7,0.7,3.6,1.3,5.8,1.7s4.4,0.9,6.6,1.5c2.2,0.5,4.4,1.1,6.6,1.9
		c2.2,0.7,4.1,1.7,5.8,2.9s3.1,2.7,4.1,4.6c1,1.8,1.5,4.2,1.5,7c0,3-0.7,5.6-2,7.7s-3.1,3.9-5.2,5.2s-4.5,2.3-7.1,2.9
		s-5.2,0.9-7.8,0.9c-3.2,0-6.1-0.4-9-1.2c-2.8-0.8-5.3-2-7.4-3.6s-3.8-3.7-5.1-6.2c-1.2-2.5-1.9-5.5-1.9-8.9h7.1
		c0,2.4,0.5,4.4,1.4,6.1s2.1,3.1,3.6,4.2s3.3,1.9,5.3,2.4s4.1,0.8,6.2,0.8c1.7,0,3.4-0.2,5.1-0.5s3.3-0.9,4.6-1.6
		c1.4-0.8,2.5-1.8,3.3-3.1s1.3-3,1.3-5.1c0-1.9-0.5-3.5-1.5-4.7s-2.4-2.2-4.1-3s-3.6-1.4-5.8-1.9s-4.4-1-6.6-1.5s-4.4-1.1-6.6-1.7
		c-2.2-0.7-4.1-1.5-5.8-2.6s-3.1-2.5-4.1-4.2s-1.5-3.9-1.5-6.4c0-2.8,0.6-5.3,1.7-7.4c1.2-2.1,2.7-3.8,4.6-5.1s4.1-2.3,6.6-3
		c2.4-0.7,5-1,7.5-1c2.9,0,5.6,0.3,8.1,1s4.6,1.8,6.5,3.2c1.9,1.5,3.3,3.3,4.4,5.6c1.1,2.2,1.7,4.9,1.8,8h-7.1
		C786,228.2,784.5,225.3,782,223.4L782,223.4z"/>
	<path class="st1" d="M804.5,243.4c0.8-2.6,2.1-4.9,3.8-6.8s3.8-3.4,6.2-4.5s5.3-1.7,8.5-1.7c3.3,0,6.1,0.6,8.6,1.7
		c2.4,1.1,4.5,2.6,6.2,4.5s2.9,4.2,3.8,6.8c0.8,2.6,1.3,5.4,1.3,8.4s-0.4,5.8-1.3,8.4c-0.8,2.6-2.1,4.8-3.8,6.8
		c-1.7,1.9-3.8,3.4-6.2,4.5s-5.3,1.6-8.6,1.6c-3.2,0-6.1-0.5-8.5-1.6s-4.6-2.6-6.2-4.5c-1.7-1.9-3-4.2-3.8-6.8s-1.3-5.4-1.3-8.4
		S803.7,246,804.5,243.4z M811.4,258.4c0.7,1.9,1.6,3.5,2.7,4.8c1.2,1.3,2.5,2.3,4.1,3s3.2,1,4.9,1s3.4-0.3,4.9-1
		c1.6-0.7,2.9-1.7,4.1-3s2.1-2.9,2.7-4.8c0.7-1.9,1-4.1,1-6.6s-0.3-4.7-1-6.6s-1.6-3.5-2.7-4.9c-1.2-1.3-2.5-2.3-4.1-3s-3.2-1-4.9-1
		s-3.4,0.3-4.9,1c-1.6,0.7-2.9,1.7-4.1,3s-2.1,2.9-2.7,4.9c-0.7,1.9-1,4.1-1,6.6C810.4,254.2,810.7,256.4,811.4,258.4z"/>
	<path class="st1" d="M859.5,215.7v56.4h-6.7v-56.4L859.5,215.7z"/>
	<path class="st1" d="M899,272.1v-6.5h-0.2c-1.4,2.5-3.2,4.4-5.5,5.6c-2.2,1.2-4.8,1.8-7.8,1.8c-2.7,0-4.9-0.4-6.7-1.1
		s-3.2-1.7-4.3-3s-1.9-2.9-2.3-4.7s-0.7-3.8-0.7-6v-26.9h6.7V259c0,2.5,0.7,4.5,2.2,6s3.5,2.2,6.1,2.2c2.1,0,3.8-0.3,5.3-0.9
		s2.8-1.5,3.8-2.7s1.8-2.5,2.3-4.1s0.8-3.3,0.8-5.1v-23.1h6.7v40.8L899,272.1z"/>
	<path class="st1" d="M934.5,231.3v5.9h-8.1v25.4c0,0.8,0.1,1.4,0.2,1.9s0.4,0.8,0.8,1.1s0.9,0.4,1.5,0.5c0.7,0.1,1.5,0.1,2.6,0.1
		h3.1v5.9h-5.1c-1.7,0-3.2-0.1-4.5-0.4s-2.2-0.7-3-1.3s-1.3-1.5-1.7-2.7s-0.6-2.7-0.6-4.6v-26h-7v-5.9h7V219h6.7v12.2L934.5,231.3
		L934.5,231.3z"/>
	<path class="st1" d="M943.9,224v-8.2h6.7v8.2H943.9z M950.6,231.3v40.8h-6.7v-40.8H950.6z"/>
	<path class="st1" d="M961.7,243.4c0.8-2.6,2.1-4.9,3.8-6.8s3.8-3.4,6.2-4.5s5.3-1.7,8.5-1.7c3.3,0,6.1,0.6,8.6,1.7
		c2.4,1.1,4.5,2.6,6.2,4.5s2.9,4.2,3.8,6.8c0.8,2.6,1.3,5.4,1.3,8.4s-0.4,5.8-1.3,8.4c-0.8,2.6-2.1,4.8-3.8,6.8
		c-1.7,1.9-3.8,3.4-6.2,4.5s-5.3,1.6-8.6,1.6c-3.2,0-6.1-0.5-8.5-1.6s-4.6-2.6-6.2-4.5c-1.7-1.9-3-4.2-3.8-6.8s-1.3-5.4-1.3-8.4
		S960.8,246,961.7,243.4z M968.5,258.4c0.7,1.9,1.6,3.5,2.7,4.8c1.2,1.3,2.5,2.3,4.1,3s3.2,1,4.9,1s3.4-0.3,4.9-1
		c1.6-0.7,2.9-1.7,4.1-3s2.1-2.9,2.7-4.8c0.7-1.9,1-4.1,1-6.6s-0.3-4.7-1-6.6s-1.6-3.5-2.7-4.9c-1.2-1.3-2.5-2.3-4.1-3s-3.2-1-4.9-1
		s-3.4,0.3-4.9,1c-1.6,0.7-2.9,1.7-4.1,3s-2.1,2.9-2.7,4.9c-0.7,1.9-1,4.1-1,6.6C967.5,254.2,967.8,256.4,968.5,258.4z"/>
	<path class="st1" d="M1015.8,231.3v6.5h0.2c2.8-4.9,7.2-7.4,13.3-7.4c2.7,0,4.9,0.4,6.7,1.1s3.2,1.8,4.3,3.1s1.9,2.9,2.3,4.7
		s0.7,3.8,0.7,6v26.9h-6.7v-27.6c0-2.5-0.7-4.5-2.2-6s-3.5-2.2-6.1-2.2c-2.1,0-3.8,0.3-5.3,0.9s-2.8,1.5-3.8,2.7s-1.8,2.5-2.3,4.1
		s-0.8,3.3-0.8,5.1v23.1h-6.7v-40.8h6.4L1015.8,231.3z"/>
	<path class="st1" d="M1060.2,263c0.6,1,1.5,1.8,2.5,2.4s2.2,1,3.5,1.3s2.6,0.4,4,0.4c1.1,0,2.2-0.1,3.3-0.2
		c1.2-0.2,2.2-0.4,3.2-0.9c1-0.4,1.8-1,2.4-1.9c0.6-0.8,0.9-1.9,0.9-3.1c0-1.7-0.7-3.1-2-3.9c-1.3-0.9-3-1.6-4.9-2.2
		c-2-0.6-4.1-1.1-6.4-1.5s-4.5-1.1-6.4-1.9c-2-0.8-3.6-2-4.9-3.4c-1.3-1.5-2-3.5-2-6.2c0-2.1,0.5-3.8,1.4-5.3s2.1-2.7,3.6-3.6
		c1.4-0.9,3.1-1.6,4.9-2.1c1.8-0.4,3.6-0.7,5.4-0.7c2.3,0,4.4,0.2,6.4,0.6c1.9,0.4,3.7,1.1,5.2,2.1s2.7,2.3,3.6,4s1.4,3.7,1.6,6.2
		h-6.7c-0.1-1.3-0.4-2.4-1-3.3s-1.3-1.6-2.2-2.1s-1.9-0.9-3-1.1s-2.2-0.4-3.3-0.4c-1,0-2,0.1-3,0.2c-1,0.2-2,0.4-2.8,0.8
		s-1.5,0.9-2.1,1.6c-0.5,0.7-0.8,1.5-0.8,2.6c0,1.2,0.4,2.1,1.2,2.9s1.9,1.4,3.1,1.9c1.3,0.5,2.7,0.9,4.3,1.3
		c1.6,0.3,3.2,0.7,4.7,1.1c1.7,0.4,3.3,0.8,4.9,1.3s3,1.2,4.3,2.1c1.2,0.9,2.2,2,3,3.3s1.1,3,1.1,4.9c0,2.5-0.5,4.5-1.5,6.2
		c-1,1.6-2.4,3-4,4c-1.7,1-3.5,1.7-5.6,2.1s-4.1,0.6-6.2,0.6c-2.3,0-4.4-0.2-6.5-0.7s-3.9-1.3-5.5-2.3c-1.6-1.1-2.8-2.5-3.8-4.3
		c-0.9-1.8-1.5-3.9-1.6-6.4h6.7C1059.2,260.7,1059.5,262,1060.2,263L1060.2,263z"/>
</g>
<path class="st2" d="M372,64h2v229h-2V64z"/>
</svg>
